<mxfile host="localhost" modified="2020-11-10T17:35:42.233Z" agent="5.0 (X11)" etag="APguDjPZ-ajhmW-HBGHs" version="13.6.2"><diagram id="V4iqYPdeOdvCTZ5bAkTX" name="Page-1"><mxGraphModel dx="1041" dy="486" grid="1" gridSize="10" guides="1" tooltips="1" connect="1" arrows="1" fold="1" page="1" pageScale="1" pageWidth="850" pageHeight="1100" background="#DAD2D8" math="0" shadow="0"><root><mxCell id="0"/><mxCell id="1" parent="0"/><mxCell id="2" value="" style="html=1;whiteSpace=wrap;shape=isoCube2;backgroundOutline=1;isoAngle=15;strokeColor=#0F8B8D;fillColor=#FAE5C7;fontColor=#143642;" parent="1" vertex="1"><mxGeometry x="340" y="100" width="85" height="100" as="geometry"/></mxCell><mxCell id="8" value="" style="endArrow=classic;html=1;strokeColor=#A8201A;fontColor=#143642;labelBackgroundColor=#DAD2D8;" parent="1" edge="1"><mxGeometry width="50" height="50" relative="1" as="geometry"><mxPoint x="270" y="149.5" as="sourcePoint"/><mxPoint x="340" y="149.5" as="targetPoint"/></mxGeometry></mxCell><mxCell id="9" value="" style="endArrow=classic;html=1;strokeColor=#A8201A;fontColor=#143642;labelBackgroundColor=#DAD2D8;" parent="1" edge="1"><mxGeometry width="50" height="50" relative="1" as="geometry"><mxPoint x="425" y="149.5" as="sourcePoint"/><mxPoint x="495" y="149.5" as="targetPoint"/></mxGeometry></mxCell><mxCell id="10" value="输入" style="text;html=1;resizable=0;autosize=1;align=center;verticalAlign=middle;points=[];fillColor=none;strokeColor=none;rounded=0;fontStyle=1;fontColor=#143642;" parent="1" vertex="1"><mxGeometry x="283" y="130" width="40" height="20" as="geometry"/></mxCell><mxCell id="11" value="输出" style="text;html=1;resizable=0;autosize=1;align=center;verticalAlign=middle;points=[];fillColor=none;strokeColor=none;rounded=0;fontStyle=1;fontColor=#143642;" parent="1" vertex="1"><mxGeometry x="434" y="130" width="40" height="20" as="geometry"/></mxCell></root></mxGraphModel></diagram></mxfile>